# xmcd
#
# Track frame offsets:
#	150
#	17733
#	42768
#	62188
#	80048
#	99298
#	124117
#	142779
#	159676
#	172807
#	191355
#
# Disc length: 2819 seconds
#
# Revision: 0
# Processed by: cddbd v1.5.2PL0 Copyright (c) Steve Scherf et al.
# Submitted via: EasyCDDAExtractor 2011.0.0.0
#
DISCID=840b010b
DTITLE=Too Much Fun - Half As Hip
DYEAR=2011
DGENRE=Other
TTITLE0=Way Down South
TTITLE1=Money Goes First
TTITLE2=Everytime We Say Goodbye
TTITLE3=Losin' Ground
TTITLE4=Apathy Blues
TTITLE5=Lie To Me
TTITLE6=Wrong But Not Guilty
TTITLE7=Cold Blooded Woman
TTITLE8=Half As Hip
TTITLE9=Time You Did
TTITLE10=Footsteps of a Clown
EXTD=
EXTT0=
EXTT1=
EXTT2=
EXTT3=
EXTT4=
EXTT5=
EXTT6=
EXTT7=
EXTT8=
EXTT9=
EXTT10=
PLAYORDER=
